<svg width="1180" height="520" viewBox="0 0 1180 520" fill="none" xmlns="http://www.w3.org/2000/svg" role="img" aria-labelledby="title desc">
  <title id="title">Artifact size benchmark</title>
  <desc id="desc">Artifact size comparison for readable output and the lossless codepack capsule.</desc>
  <rect width="1180" height="520" rx="24" fill="#0E1116"/>
  <rect x="1" y="1" width="1178" height="518" rx="23" stroke="#242B36"/>

  <text x="56" y="72" fill="#F4F7FB" font-family="Inter, Segoe UI, Arial, sans-serif" font-size="35" font-weight="750">Transport size and token cost are separate</text>
  <text x="56" y="108" fill="#AAB4C3" font-family="Inter, Segoe UI, Arial, sans-serif" font-size="17">This repo, 75 files. Smaller bytes do not automatically mean fewer chat tokens.</text>

  <line x1="132" y1="402" x2="1080" y2="402" stroke="#2E3848" stroke-width="2"/>
  <line x1="132" y1="172" x2="132" y2="402" stroke="#2E3848" stroke-width="2"/>
  <line x1="132" y1="287" x2="1080" y2="287" stroke="#202938"/>
  <line x1="132" y1="172" x2="1080" y2="172" stroke="#202938"/>

  <text x="74" y="407" fill="#8D98A8" font-family="Inter, Segoe UI, Arial, sans-serif" font-size="14">0KB</text>
  <text x="60" y="292" fill="#8D98A8" font-family="Inter, Segoe UI, Arial, sans-serif" font-size="14">120KB</text>
  <text x="60" y="177" fill="#8D98A8" font-family="Inter, Segoe UI, Arial, sans-serif" font-size="14">240KB</text>

  <rect x="178" y="185" width="118" height="217" rx="8" fill="#465469"/>
  <rect x="362" y="176" width="118" height="226" rx="8" fill="#7F93B7"/>
  <rect x="546" y="303" width="118" height="99" rx="8" fill="#8AD7C7"/>
  <rect x="730" y="337" width="118" height="65" rx="8" fill="#B3A580"/>
  <rect x="914" y="314" width="118" height="88" rx="8" fill="#8794A8"/>

  <g font-family="Inter, Segoe UI, Arial, sans-serif" font-size="18" font-weight="750">
    <text x="174" y="162" fill="#C9D1DE">227.1KB</text>
    <text x="358" y="153" fill="#D8DEE9">236.1KB</text>
    <text x="550" y="281" fill="#D8EEE9">103.6KB</text>
    <text x="734" y="315" fill="#E8E1CB">67.6KB</text>
    <text x="918" y="292" fill="#D8DEE9">91.7KB</text>
  </g>

  <g font-family="Inter, Segoe UI, Arial, sans-serif" font-size="14" font-weight="700" fill="#F4F7FB">
    <text x="162" y="442">Raw packed</text>
    <text x="346" y="442">Markdown</text>
    <text x="520" y="442">Pruned Markdown</text>
    <text x="716" y="442">zstd payload</text>
    <text x="890" y="442">.codepack.txt</text>
  </g>
</svg>
