<svg width="1180" height="520" viewBox="0 0 1180 520" fill="none" xmlns="http://www.w3.org/2000/svg" role="img" aria-labelledby="title desc">
  <title id="title">Artifact size benchmark</title>
  <desc id="desc">Monochrome bar chart comparing artifact sizes for readable and capsule outputs.</desc>
  <rect width="1180" height="520" fill="#FFFFFF"/>
  <rect x="24" y="24" width="1132" height="472" rx="8" fill="#FFFFFF" stroke="#D1D5DB"/>

  <text x="64" y="76" fill="#111827" font-family="Arial, Helvetica, sans-serif" font-size="30" font-weight="700">Artifact size comparison</text>
  <text x="64" y="108" fill="#4B5563" font-family="Arial, Helvetica, sans-serif" font-size="16">This repository, 75 files. Smaller transport bytes are not the same thing as fewer chat tokens.</text>

  <line x1="132" y1="400" x2="1080" y2="400" stroke="#9CA3AF"/>
  <line x1="132" y1="170" x2="132" y2="400" stroke="#9CA3AF"/>
  <line x1="132" y1="285" x2="1080" y2="285" stroke="#E5E7EB"/>
  <line x1="132" y1="170" x2="1080" y2="170" stroke="#E5E7EB"/>
  <text x="78" y="405" fill="#6B7280" font-family="Arial, Helvetica, sans-serif" font-size="13">0 KB</text>
  <text x="62" y="290" fill="#6B7280" font-family="Arial, Helvetica, sans-serif" font-size="13">120 KB</text>
  <text x="62" y="175" fill="#6B7280" font-family="Arial, Helvetica, sans-serif" font-size="13">240 KB</text>

  <rect x="178" y="183" width="118" height="217" fill="#111827"/>
  <rect x="362" y="174" width="118" height="226" fill="#374151"/>
  <rect x="546" y="301" width="118" height="99" fill="#6B7280"/>
  <rect x="730" y="335" width="118" height="65" fill="#9CA3AF"/>
  <rect x="914" y="312" width="118" height="88" fill="#4B5563"/>

  <g fill="#111827" font-family="Arial, Helvetica, sans-serif" font-size="17" font-weight="700">
    <text x="172" y="158">227.1 KB</text>
    <text x="356" y="149">236.1 KB</text>
    <text x="544" y="278">103.6 KB</text>
    <text x="732" y="312">67.6 KB</text>
    <text x="916" y="289">91.7 KB</text>
  </g>

  <g fill="#111827" font-family="Arial, Helvetica, sans-serif" font-size="13" font-weight="700">
    <text x="160" y="438">Raw packed</text>
    <text x="344" y="438">Markdown</text>
    <text x="520" y="438">Pruned Markdown</text>
    <text x="714" y="438">zstd payload</text>
    <text x="886" y="438">.codepack.txt</text>
  </g>
</svg>
